<svg id="placeholder"  xmlns="http://www.w3.org/2000/svg" width="250" height="183.333" viewBox="0 0 250 183.333">
  <path id="Path_38744" data-name="Path 38744" d="M4010.5,1852.333a12.513,12.513,0,0,1-12.5-12.5V1681.5a12.513,12.513,0,0,1,12.5-12.5h225a12.513,12.513,0,0,1,12.5,12.5v158.333a12.513,12.513,0,0,1-12.5,12.5Zm163.755-132.115L4050.436,1844H4235.5a4.172,4.172,0,0,0,4.167-4.166v-60.064l-59.57-59.53a4.141,4.141,0,0,0-5.842-.021Zm-129.167,29.167-38.755,38.757v51.691A4.171,4.171,0,0,0,4010.5,1844h28.15l53.466-53.449-41.184-41.144a4.143,4.143,0,0,0-5.843-.021Zm11.752-5.855,41.167,41.13,70.337-70.317a12.705,12.705,0,0,1,17.661.021l53.661,53.622V1681.5a4.172,4.172,0,0,0-4.167-4.166h-225a4.171,4.171,0,0,0-4.166,4.166v94.859l32.845-32.847a12.7,12.7,0,0,1,17.662.018Zm20.325-20.364a25,25,0,1,1,25,25A25.028,25.028,0,0,1,4077.166,1723.167Zm8.333,0a16.667,16.667,0,1,0,16.666-16.667A16.686,16.686,0,0,0,4085.5,1723.167Z" transform="translate(-3998 -1669)" fill="#f5f5f5"/>
</svg>
